<svg xmlns="http://www.w3.org/2000/svg" xmlns:xlink="http://www.w3.org/1999/xlink" width="500" zoomAndPan="magnify" viewBox="0 0 375 374.999991" height="500" preserveAspectRatio="xMidYMid meet" version="1.0"><defs><g/><clipPath id="1bdd84c7cc"><path d="M 118.792969 165.902344 L 191.875 165.902344 L 191.875 221.480469 L 118.792969 221.480469 Z M 118.792969 165.902344 " clip-rule="nonzero"/></clipPath><clipPath id="44c3e9d347"><path d="M 111.496094 166 L 175.898438 166 L 175.898438 220.914062 L 111.496094 220.914062 Z M 111.496094 166 " clip-rule="nonzero"/></clipPath></defs><g fill="#1d33c0" fill-opacity="1"><g transform="translate(29.936318, 236.14029)"><g><path d="M 16.0625 -91.53125 L 16.0625 -125.625 L 47.640625 -125.625 L 47.640625 -91.53125 L 66.90625 -91.53125 L 66.90625 -67.453125 L 47.640625 -67.453125 L 47.640625 -38.359375 C 47.640625 -29.910156 50.019531 -25.6875 54.78125 -25.6875 C 55.96875 -25.6875 57.210938 -25.925781 58.515625 -26.40625 C 59.828125 -26.882812 60.84375 -27.363281 61.5625 -27.84375 L 62.625 -28.546875 L 70.484375 -3.03125 C 63.703125 0.769531 55.96875 2.671875 47.28125 2.671875 C 41.332031 2.671875 36.21875 1.632812 31.9375 -0.4375 C 27.65625 -2.519531 24.414062 -5.316406 22.21875 -8.828125 C 20.019531 -12.335938 18.441406 -16.023438 17.484375 -19.890625 C 16.535156 -23.753906 16.0625 -27.890625 16.0625 -32.296875 L 16.0625 -67.453125 L 2.859375 -67.453125 L 2.859375 -91.53125 Z M 16.0625 -91.53125 "/></g></g></g><g fill="#1d33c0" fill-opacity="1"><g transform="translate(85.24838, 236.14029)"><g><path d="M 16.953125 -11.328125 C 8.390625 -20.671875 4.109375 -32.117188 4.109375 -45.671875 C 4.109375 -59.234375 8.390625 -70.710938 16.953125 -80.109375 C 25.515625 -89.515625 36.398438 -94.21875 49.609375 -94.21875 C 61.742188 -94.21875 71.734375 -90.410156 79.578125 -82.796875 L 79.578125 -91.53125 L 111.171875 -91.53125 L 111.171875 0 L 79.9375 0 L 79.9375 -10.34375 L 79.578125 -10.34375 C 71.734375 -1.664062 61.742188 2.671875 49.609375 2.671875 C 36.398438 2.671875 25.515625 -1.992188 16.953125 -11.328125 Z M 43.8125 -61.203125 C 39.707031 -57.160156 37.65625 -51.984375 37.65625 -45.671875 C 37.65625 -39.367188 39.613281 -34.222656 43.53125 -30.234375 C 47.457031 -26.253906 52.632812 -24.265625 59.0625 -24.265625 C 65.25 -24.265625 70.332031 -26.285156 74.3125 -30.328125 C 78.300781 -34.378906 80.296875 -39.5 80.296875 -45.6875 C 80.296875 -51.988281 78.242188 -57.160156 74.140625 -61.203125 C 70.035156 -65.242188 65.007812 -67.265625 59.0625 -67.265625 C 53 -67.265625 47.914062 -65.242188 43.8125 -61.203125 Z M 43.8125 -61.203125 "/></g></g></g><g fill="#1d33c0" fill-opacity="1"><g transform="translate(191.948175, 236.14029)"><g><path d="M 10.703125 0 L 10.703125 -153.453125 L 42.296875 -153.453125 L 42.296875 0 Z M 10.703125 0 "/></g></g></g><g fill="#1d33c0" fill-opacity="1"><g transform="translate(229.774134, 236.14029)"><g><path d="M 115.265625 -91.53125 L 71.734375 -47.828125 L 119.546875 0 L 78.875 0 L 42.296875 -36.578125 L 42.296875 0 L 10.703125 0 L 10.703125 -153.453125 L 42.296875 -153.453125 L 42.296875 -59.59375 L 74.234375 -91.53125 Z M 115.265625 -91.53125 "/></g></g></g><g clip-path="url(#1bdd84c7cc)"><path fill="#1d33c0" d="M 118.792969 165.902344 L 191.953125 165.902344 L 191.953125 221.480469 L 118.792969 221.480469 Z M 118.792969 165.902344 " fill-opacity="1" fill-rule="nonzero"/></g><g clip-path="url(#44c3e9d347)"><path fill="#ffffff" d="M 156.289062 195.242188 C 154.105469 195.242188 152.339844 193.472656 152.339844 191.292969 C 152.339844 189.109375 154.105469 187.339844 156.289062 187.339844 C 158.472656 187.339844 160.242188 189.109375 160.242188 191.292969 C 160.242188 193.472656 158.472656 195.242188 156.289062 195.242188 Z M 143.121094 195.242188 C 140.9375 195.242188 139.167969 193.472656 139.167969 191.292969 C 139.167969 189.109375 140.9375 187.339844 143.121094 187.339844 C 145.300781 187.339844 147.070312 189.109375 147.070312 191.292969 C 147.070312 193.472656 145.300781 195.242188 143.121094 195.242188 Z M 129.949219 195.242188 C 127.765625 195.242188 125.996094 193.472656 125.996094 191.292969 C 125.996094 189.109375 127.765625 187.339844 129.949219 187.339844 C 132.132812 187.339844 133.898438 189.109375 133.898438 191.292969 C 133.898438 193.472656 132.132812 195.242188 129.949219 195.242188 Z M 144.15625 166.257812 C 126.441406 165.910156 111.859375 176.824219 111.589844 190.636719 C 111.492188 195.441406 113.140625 199.960938 116.074219 203.828125 C 121.121094 210.3125 115.613281 221.453125 115.613281 221.453125 L 131.871094 214.453125 C 135.375 215.558594 139.179688 216.203125 143.167969 216.28125 C 160.882812 216.632812 175.460938 205.714844 175.734375 191.902344 C 176.007812 178.089844 161.867188 166.609375 144.15625 166.257812 " fill-opacity="1" fill-rule="evenodd"/></g></svg>