<svg xmlns="http://www.w3.org/2000/svg" xmlns:xlink="http://www.w3.org/1999/xlink" width="500" zoomAndPan="magnify" viewBox="0 0 375 374.999991" height="500" preserveAspectRatio="xMidYMid meet" version="1.0"><defs><clipPath id="84272915b7"><path d="M 44 72.632812 L 332 72.632812 L 332 298 L 44 298 Z M 44 72.632812 " clip-rule="nonzero"/></clipPath><clipPath id="3686509e77"><path d="M 121.40625 150.902344 L 160.808594 150.902344 L 160.808594 190.304688 L 121.40625 190.304688 Z M 121.40625 150.902344 " clip-rule="nonzero"/></clipPath><clipPath id="e036445f9d"><path d="M 141.109375 150.902344 C 130.226562 150.902344 121.40625 159.722656 121.40625 170.601562 C 121.40625 181.484375 130.226562 190.304688 141.109375 190.304688 C 151.988281 190.304688 160.808594 181.484375 160.808594 170.601562 C 160.808594 159.722656 151.988281 150.902344 141.109375 150.902344 Z M 141.109375 150.902344 " clip-rule="nonzero"/></clipPath><clipPath id="77a3f42641"><path d="M 216.605469 150.902344 L 256.007812 150.902344 L 256.007812 190.304688 L 216.605469 190.304688 Z M 216.605469 150.902344 " clip-rule="nonzero"/></clipPath><clipPath id="3211ba529f"><path d="M 236.308594 150.902344 C 225.425781 150.902344 216.605469 159.722656 216.605469 170.601562 C 216.605469 181.484375 225.425781 190.304688 236.308594 190.304688 C 247.1875 190.304688 256.007812 181.484375 256.007812 170.601562 C 256.007812 159.722656 247.1875 150.902344 236.308594 150.902344 Z M 236.308594 150.902344 " clip-rule="nonzero"/></clipPath><clipPath id="ea74f61b68"><path d="M 125.464844 215.964844 L 249.59375 215.964844 L 249.59375 271.421875 L 125.464844 271.421875 Z M 125.464844 215.964844 " clip-rule="nonzero"/></clipPath><clipPath id="17689b5095"><path d="M 166.84375 268.363281 C 173.203125 270.210938 180.4375 271.421875 187.535156 271.421875 C 194.632812 271.421875 201.460938 270.382812 207.753906 268.539062 C 207.886719 268.480469 208.023438 268.480469 208.15625 268.421875 C 231.792969 261.039062 249.203125 241.542969 249.535156 220.421875 L 249.535156 215.964844 L 125.464844 215.964844 L 125.464844 220.417969 C 125.796875 241.660156 142.941406 261.15625 166.84375 268.363281 Z M 166.84375 268.363281 " clip-rule="nonzero"/></clipPath></defs><g clip-path="url(#84272915b7)"><path fill="#1358b4" d="M 136.371094 72.640625 L 134.304688 75.921875 C 126.914062 88.089844 119.53125 97 112.160156 102.648438 C 108.628906 105.949219 98.191406 111.296875 80.835938 118.695312 C 73.75 122.777344 69.59375 125.539062 68.367188 126.988281 C 59.445312 135.828125 53.945312 144.03125 51.867188 151.59375 C 44.996094 170.332031 42.71875 190.792969 45.035156 212.972656 C 47.710938 234.132812 55.625 251.109375 68.773438 263.910156 C 94.539062 289.535156 140.234375 300.558594 205.855469 296.988281 C 238.273438 295.527344 261.652344 291.925781 275.996094 286.175781 C 294.3125 280.210938 308.472656 269.316406 318.480469 253.496094 C 320.785156 251.304688 324.289062 242.296875 328.992188 226.460938 C 331.957031 213.160156 332.703125 199.691406 331.230469 186.054688 C 328.964844 165.183594 321.949219 148.25 310.175781 135.25 C 300.78125 123.617188 283.933594 114.324219 259.632812 107.367188 C 248.496094 104.773438 238.535156 103.292969 229.761719 102.917969 C 226.308594 102.167969 208.761719 102.5 177.125 103.914062 C 171.355469 103.847656 166.398438 103.066406 162.25 101.570312 C 151.8125 97.421875 143.183594 87.777344 136.371094 72.640625 " fill-opacity="1" fill-rule="nonzero"/></g><g clip-path="url(#3686509e77)"><g clip-path="url(#e036445f9d)"><path fill="#ffffff" d="M 121.40625 150.902344 L 160.808594 150.902344 L 160.808594 190.304688 L 121.40625 190.304688 Z M 121.40625 150.902344 " fill-opacity="1" fill-rule="nonzero"/></g></g><g clip-path="url(#77a3f42641)"><g clip-path="url(#3211ba529f)"><path fill="#ffffff" d="M 216.605469 150.902344 L 256.007812 150.902344 L 256.007812 190.304688 L 216.605469 190.304688 Z M 216.605469 150.902344 " fill-opacity="1" fill-rule="nonzero"/></g></g><g clip-path="url(#ea74f61b68)"><g clip-path="url(#17689b5095)"><path fill="#ffffff" d="M 125.464844 215.964844 L 249.59375 215.964844 L 249.59375 271.421875 L 125.464844 271.421875 Z M 125.464844 215.964844 " fill-opacity="1" fill-rule="nonzero"/></g></g></svg>